<?xml version="1.0" encoding="UTF-8" standalone="no"?>
<!-- Created with Inkscape (http://www.inkscape.org/) -->

<svg
   width="48.425259mm"
   height="5.3401284mm"
   viewBox="0 0 48.425259 5.3401283"
   version="1.1"
   id="svg1"
   inkscape:version="1.4 (86a8ad7, 2024-10-11)"
   sodipodi:docname="digitaltorment.svg"
   xmlns:inkscape="http://www.inkscape.org/namespaces/inkscape"
   xmlns:sodipodi="http://sodipodi.sourceforge.net/DTD/sodipodi-0.dtd"
   xmlns="http://www.w3.org/2000/svg"
   xmlns:svg="http://www.w3.org/2000/svg">
  <sodipodi:namedview
     id="namedview1"
     pagecolor="#ffffff"
     bordercolor="#000000"
     borderopacity="0.25"
     inkscape:showpageshadow="2"
     inkscape:pageopacity="0.0"
     inkscape:pagecheckerboard="0"
     inkscape:deskcolor="#d1d1d1"
     inkscape:document-units="mm"
     inkscape:zoom="1.3772587"
     inkscape:cx="161.91584"
     inkscape:cy="60.26464"
     inkscape:window-width="1920"
     inkscape:window-height="991"
     inkscape:window-x="-9"
     inkscape:window-y="-9"
     inkscape:window-maximized="1"
     inkscape:current-layer="layer1" />
  <defs
     id="defs1" />
  <g
     inkscape:label="Layer 1"
     inkscape:groupmode="layer"
     id="layer1"
     transform="translate(-17.69566,-108.24376)">
    <path
       d="m 22.114147,111.906 v -1.19062 h 0.297656 v -0.39688 h 0.297657 v -0.39687 h 0.595312 v -0.79375 H 23.007116 V 108.731 h 0.892969 v 3.175 h 0.297656 v 0.39688 H 23.602428 V 111.906 h -0.297656 v -1.5875 h -0.297656 v 0.39688 H 22.70946 v 1.19062 h 0.595312 v 0.39688 H 22.411803 V 111.906 Z m 3.274219,0.39688 V 111.906 h 0.297656 v -1.5875 h -0.297656 v -0.39687 h 0.892969 v 1.98437 h 0.297656 v 0.39688 z m 0.297656,-2.77813 V 108.731 h 0.595313 v 0.79375 z m 1.785938,3.175 v -0.39687 h 0.595312 v 0.39687 h 0.595313 V 111.906 h -0.892969 v -0.39687 H 27.47196 v -1.19063 h 0.297656 v -0.39687 h 0.892969 v 0.39687 h -0.595313 v 1.19063 h 0.595313 v -1.19063 h 0.297656 v -0.39687 h 0.595312 v 0.39687 h -0.297656 v 2.38125 h -0.297656 v 0.39688 h -1.190625 v -0.39688 z m 3.274218,-0.39687 V 111.906 h 0.297656 v -1.5875 h -0.297656 v -0.39687 h 0.892969 v 1.98437 h 0.297656 v 0.39688 z m 0.297656,-2.77813 V 108.731 h 0.595313 v 0.79375 z m 1.785938,0.79375 v -0.39687 h 0.595312 v -0.79375 h 0.297657 V 108.731 h 0.297656 v 1.19063 h 0.595312 v 0.39687 h -0.595312 v 1.5875 h 0.297656 v -0.39687 h 0.595313 v 0.39687 h -0.297657 v 0.39688 H 33.722741 V 111.906 h -0.297657 v -1.5875 z m 2.678906,1.5875 v -0.79375 h 0.297657 v -0.39687 h 0.892968 v -0.39688 h -0.892968 v -0.39687 h 1.190625 v 0.39687 h 0.297656 v 1.5875 h 0.297656 v 0.39688 H 36.99696 V 111.906 h -0.297657 v -0.79375 h -0.595312 v 0.79375 h 0.595312 v 0.39688 H 35.806335 V 111.906 Z m 4.167187,0 h 0.297656 v 0.39688 H 38.782896 V 111.906 h 0.297657 v -2.77812 H 38.782896 V 108.731 h 0.892969 z m 3.869532,-1.5875 v -0.39687 h 0.595312 v -0.79375 h 0.297657 V 108.731 h 0.297656 v 1.19063 h 0.595312 v 0.39687 h -0.595312 v 1.5875 h 0.297656 v -0.39687 h 0.595313 v 0.39687 h -0.297657 v 0.39688 H 44.438366 V 111.906 h -0.297657 v -1.5875 z m 2.678905,1.5875 v -1.5875 h 0.297657 v -0.39687 h 1.488281 v 0.39687 h 0.297656 v 1.5875 H 48.01024 v 0.39688 H 46.521959 V 111.906 Z m 0.595313,0 h 0.892969 v -1.5875 h -0.892969 z m 2.083595,0.39688 V 111.906 h 0.297656 v -1.5875 H 48.90321 v -0.39687 h 0.595312 v 0.39687 h 0.297656 v -0.39687 h 0.892969 v 0.39687 h 0.297656 v 0.79375 h -0.595312 v -0.79375 h -0.297656 v 0.39688 h -0.297657 v 1.19062 h 0.297657 v 0.39688 z m 2.678905,0 v -2.38125 h 0.892969 v 0.39687 h 0.595312 v -0.39687 h 0.595313 v 0.39687 h 0.297656 v 1.98438 h -0.595312 v -1.5875 h -0.297657 v 1.5875 h -0.595312 v -1.5875 h -0.297656 v 1.5875 z m 2.678906,-0.39688 v -1.5875 h 0.297656 v -0.39687 h 1.488281 v 0.39687 h 0.297656 v 0.79375 h -1.488281 v 0.79375 h 0.892969 v -0.39687 h 0.595312 v 0.39687 h -0.297656 v 0.39688 H 54.558677 V 111.906 Z m 0.595312,-1.5875 v 0.39688 h 0.892969 v -0.39688 z m 2.083593,0 v -0.39687 h 0.595313 v 0.39687 h 0.297656 v 1.98438 h -0.595313 v -1.98438 z m 0.892969,0 v -0.39687 h 0.892969 v 0.39687 h 0.297656 v 1.98438 h -0.595313 v -1.98438 z m 1.78594,0 v -0.39687 h 0.595313 v -0.79375 h 0.297656 V 108.731 h 0.297656 v 1.19063 h 0.595313 v 0.39687 H 60.80946 v 1.5875 h 0.297657 v -0.39687 h 0.595312 v 0.39687 h -0.297656 v 0.39688 H 60.511804 V 111.906 h -0.297656 v -1.5875 z"
       id="text1"
       style="font-size:6.35px;line-height:0.4;font-family:'AcPlus IBM VGA 9x14';-inkscape-font-specification:'AcPlus IBM VGA 9x14';word-spacing:0px;stroke-width:1.752;stroke-linejoin:bevel;stroke-miterlimit:0;stroke-dashoffset:7.49486;fill:#ffffff"
       aria-label="digital torment" />
  </g>
</svg>
