<?xml version="1.0" encoding="UTF-8" standalone="no"?>
<!-- Created with Inkscape (http://www.inkscape.org/) -->

<svg
   width="57.541149mm"
   height="9.3066044mm"
   viewBox="0 0 57.541149 9.3066039"
   version="1.1"
   id="svg1"
   inkscape:version="1.4 (86a8ad7, 2024-10-11)"
   sodipodi:docname="fellnohunger.svg"
   xmlns:inkscape="http://www.inkscape.org/namespaces/inkscape"
   xmlns:sodipodi="http://sodipodi.sourceforge.net/DTD/sodipodi-0.dtd"
   xmlns="http://www.w3.org/2000/svg"
   xmlns:svg="http://www.w3.org/2000/svg">
  <sodipodi:namedview
     id="namedview1"
     pagecolor="#ffffff"
     bordercolor="#000000"
     borderopacity="0.25"
     inkscape:showpageshadow="2"
     inkscape:pageopacity="0.0"
     inkscape:pagecheckerboard="0"
     inkscape:deskcolor="#d1d1d1"
     inkscape:document-units="mm"
     inkscape:zoom="1.9477379"
     inkscape:cx="113.97837"
     inkscape:cy="86.253904"
     inkscape:window-width="1920"
     inkscape:window-height="991"
     inkscape:window-x="-9"
     inkscape:window-y="-9"
     inkscape:window-maximized="1"
     inkscape:current-layer="layer1" />
  <defs
     id="defs1" />
  <g
     inkscape:label="Layer 1"
     inkscape:groupmode="layer"
     id="layer1"
     transform="translate(-34.580395,-106.18721)">
    <path
       d="m 36.23828,109.08972 h 0.648021 v -0.56844 q 0,-0.58739 0.386539,-0.95877 0.390329,-0.37517 1.015613,-0.37517 0.416856,0 0.648022,0.17432 0.234955,0.17432 0.234955,0.37896 0,0.13643 -0.09474,0.23117 -0.09095,0.091 -0.231166,0.091 -0.125057,0 -0.216007,-0.0455 -0.09095,-0.0455 -0.28043,-0.22737 -0.200849,-0.18948 -0.38275,-0.18948 -0.125057,0 -0.227376,0.0796 -0.09853,0.0758 -0.155373,0.22737 -0.05306,0.1478 -0.05306,0.45854 v 0.72382 h 0.712445 v 0.38654 h -0.712445 v 2.45945 q 0,0.2539 0.0379,0.34106 0.0379,0.0834 0.113688,0.11748 0.07579,0.0341 0.352433,0.0341 h 0.155374 v 0.31833 H 36.23828 v -0.31833 h 0.117477 q 0.299379,0 0.37896,-0.0379 0.08337,-0.0379 0.117478,-0.12127 0.0379,-0.0872 0.03411,-0.39033 v -2.4026 H 36.23828 Z m 5.748822,2.67924 0.242535,0.19706 q -0.276641,0.3297 -0.538123,0.52297 -0.257693,0.19327 -0.488859,0.26906 -0.231165,0.0796 -0.541913,0.0796 -0.557071,0 -0.947399,-0.22737 -0.447173,-0.26149 -0.685918,-0.68213 -0.238745,-0.42065 -0.238745,-0.99288 0,-0.59875 0.231166,-1.02319 0.231165,-0.42443 0.644232,-0.66697 0.416856,-0.24632 0.962558,-0.24632 0.405487,0 0.704866,0.12884 0.299378,0.12506 0.507806,0.38275 0.208428,0.25391 0.303168,0.5836 0.05305,0.19327 0.06063,0.50023 h -2.679246 q -0.01137,0.18569 -0.01137,0.27664 0,0.47749 0.166742,0.85266 0.166743,0.37138 0.439594,0.54949 0.276641,0.17432 0.625284,0.17432 0.295588,0 0.572229,-0.13642 0.276641,-0.14022 0.670759,-0.54192 z m -0.485068,-1.53099 q -0.05684,-0.34865 -0.162953,-0.51539 -0.102319,-0.16674 -0.295589,-0.26527 -0.18948,-0.0985 -0.428225,-0.0985 -0.238744,0 -0.447172,0.0985 -0.208428,0.0985 -0.348644,0.27285 -0.136425,0.17432 -0.238744,0.50781 z m 4.520992,1.53099 0.242534,0.19706 q -0.276641,0.3297 -0.538123,0.52297 -0.257693,0.19327 -0.488858,0.26906 -0.231166,0.0796 -0.541913,0.0796 -0.557071,0 -0.9474,-0.22737 -0.447173,-0.26149 -0.685917,-0.68213 -0.238745,-0.42065 -0.238745,-0.99288 0,-0.59875 0.231165,-1.02319 0.231166,-0.42443 0.644232,-0.66697 0.416856,-0.24632 0.962559,-0.24632 0.405487,0 0.704865,0.12884 0.299378,0.12506 0.507806,0.38275 0.208428,0.25391 0.303168,0.5836 0.05306,0.19327 0.06063,0.50023 h -2.679247 q -0.01137,0.18569 -0.01137,0.27664 0,0.47749 0.166743,0.85266 0.166742,0.37138 0.439593,0.54949 0.276641,0.17432 0.625284,0.17432 0.295589,0 0.57223,-0.13642 0.27664,-0.14022 0.670759,-0.54192 z m -0.485069,-1.53099 q -0.05684,-0.34865 -0.162953,-0.51539 -0.102319,-0.16674 -0.295588,-0.26527 -0.18948,-0.0985 -0.428225,-0.0985 -0.238745,0 -0.447173,0.0985 -0.208428,0.0985 -0.348643,0.27285 -0.136426,0.17432 -0.238745,0.50781 z m 1.23541,-2.42156 v -0.31074 q 0.515385,-0.0379 1.004244,-0.31833 h 0.28043 v 4.665 q 0,0.29558 0.0379,0.37138 0.04926,0.10611 0.144005,0.15537 0.09474,0.0493 0.363802,0.0493 h 0.121267 v 0.31833 h -1.951644 v -0.31833 h 0.197059 q 0.185691,0 0.276641,-0.0568 0.09474,-0.0568 0.132636,-0.15537 0.04169,-0.0985 0.04169,-0.39412 v -4.00561 z m 4.854477,1.81901 v -0.31833 q 0.337274,-0.0379 0.504017,-0.0909 0.166742,-0.053 0.481279,-0.22737 h 0.272851 v 0.72002 q 0.500227,-0.42064 0.85266,-0.56844 0.356222,-0.15158 0.720024,-0.15158 0.310747,0 0.549492,0.10611 0.238745,0.10232 0.386539,0.28043 0.151584,0.17811 0.200849,0.40548 0.03032,0.14022 0.03032,0.42444 v 1.66742 q 0,0.29938 0.04169,0.38654 0.04547,0.0834 0.140215,0.12127 0.09474,0.0379 0.466121,0.0379 v 0.31833 h -1.951644 v -0.31833 h 0.106109 q 0.272851,0 0.371381,-0.0493 0.09853,-0.0493 0.140215,-0.144 0.04548,-0.0947 0.04548,-0.38654 v -1.39458 q 0,-0.43201 -0.072,-0.59875 -0.06821,-0.16675 -0.238745,-0.26906 -0.166742,-0.10611 -0.424435,-0.10611 -0.306958,0 -0.655601,0.15916 -0.348643,0.15537 -0.674548,0.46233 v 1.74701 q 0,0.29558 0.04168,0.39411 0.04548,0.0985 0.144005,0.1478 0.06821,0.0379 0.363801,0.0379 h 0.109899 v 0.31833 h -1.951644 v -0.31833 h 0.09474 q 0.28043,0 0.38275,-0.0455 0.102319,-0.0493 0.144004,-0.17053 0.02274,-0.0606 0.02274,-0.41686 v -2.16007 z m 7.033497,-0.63665 q 0.557071,0 0.962558,0.23116 0.409277,0.23117 0.644232,0.67455 0.234956,0.44338 0.234956,1.01182 0,0.56844 -0.242535,1.01183 -0.238745,0.44338 -0.655601,0.67834 -0.413066,0.23116 -0.989085,0.23116 -0.917083,0 -1.379414,-0.57223 -0.458542,-0.57223 -0.458542,-1.34531 0,-0.56465 0.238745,-1.00045 0.238745,-0.43959 0.66697,-0.67834 0.432014,-0.24253 0.977716,-0.24253 z m -0.03032,0.36759 q -0.432014,0 -0.731392,0.34106 -0.37896,0.42444 -0.37896,1.23541 0,0.78066 0.322116,1.18994 0.291799,0.3638 0.792026,0.3638 0.322116,0 0.57223,-0.17053 0.253903,-0.17054 0.409276,-0.54192 0.155374,-0.37517 0.155374,-0.87918 0,-0.49265 -0.166743,-0.88298 -0.128846,-0.31075 -0.390328,-0.48128 -0.257693,-0.17432 -0.583599,-0.17432 z m 4.945427,-1.53479 v -0.3259 q 0.367591,-0.0493 0.572229,-0.11369 0.204639,-0.0682 0.428225,-0.20464 h 0.295589 v 2.50492 q 0.428225,-0.36001 0.810974,-0.52675 0.38275,-0.16674 0.731393,-0.16674 0.507806,0 0.837501,0.30317 0.325906,0.30316 0.325906,0.73897 v 1.86069 q 0,0.27664 0.04169,0.3638 0.04547,0.0834 0.147794,0.12506 0.102319,0.0379 0.458541,0.0379 v 0.31833 h -1.955433 v -0.31833 h 0.144005 q 0.276641,0 0.363801,-0.0417 0.08716,-0.0455 0.125057,-0.14401 0.04169,-0.10231 0.04169,-0.41685 v -1.29225 q 0,-0.42823 -0.03032,-0.55708 -0.05684,-0.21979 -0.234955,-0.35243 -0.178111,-0.13263 -0.454752,-0.13263 -0.310747,0 -0.651811,0.15537 -0.337275,0.15158 -0.701076,0.45854 v 1.89859 q 0,0.21222 0.0379,0.28422 0.0379,0.072 0.125057,0.10611 0.08716,0.0341 0.348643,0.0341 h 0.155373 v 0.31833 h -1.963012 v -0.31833 h 0.117477 q 0.276641,0 0.401698,-0.0682 0.06821,-0.0341 0.09853,-0.13263 0.03032,-0.0985 0.03032,-0.54571 v -3.85023 z m 4.9189,1.25815 1.436259,-0.0568 v 2.44051 q 0,0.32211 0.08716,0.51159 0.09095,0.18948 0.272852,0.29559 0.18569,0.10232 0.432014,0.10232 0.303168,0 0.685917,-0.16295 0.38654,-0.16296 0.769289,-0.48507 v -1.76596 q 0,-0.28043 -0.04169,-0.36759 -0.04169,-0.0872 -0.147795,-0.14021 -0.106109,-0.0531 -0.333485,-0.0531 h -0.27664 v -0.31832 l 1.436258,-0.0568 v 2.82704 q 0,0.27286 0.04547,0.37896 0.04548,0.10232 0.132636,0.1478 0.09095,0.0417 0.360012,0.0417 h 0.117478 v 0.31833 l -1.258147,0.0644 v -0.70107 q -0.519176,0.41306 -0.905715,0.57223 -0.386539,0.15537 -0.784447,0.15537 -0.295589,0 -0.515385,-0.0796 -0.216007,-0.0796 -0.38275,-0.23874 -0.162953,-0.15917 -0.250113,-0.38275 -0.08716,-0.22359 -0.08716,-0.47749 v -1.72427 q 0,-0.23117 -0.04169,-0.32212 -0.04169,-0.0947 -0.140215,-0.14779 -0.09474,-0.0568 -0.261482,-0.0568 h -0.348644 z m 5.48734,0.5457 v -0.31833 q 0.337274,-0.0379 0.504017,-0.0909 0.166742,-0.053 0.481279,-0.22737 h 0.272851 v 0.72002 q 0.500227,-0.42064 0.85266,-0.56844 0.356222,-0.15158 0.720024,-0.15158 0.310747,0 0.549492,0.10611 0.238745,0.10232 0.386539,0.28043 0.151584,0.17811 0.200849,0.40548 0.03032,0.14022 0.03032,0.42444 v 1.66742 q 0,0.29938 0.04169,0.38654 0.04548,0.0834 0.140215,0.12127 0.09474,0.0379 0.466121,0.0379 v 0.31833 h -1.951644 v -0.31833 h 0.106109 q 0.272851,0 0.371381,-0.0493 0.09853,-0.0493 0.140215,-0.144 0.04547,-0.0947 0.04547,-0.38654 v -1.39458 q 0,-0.43201 -0.072,-0.59875 -0.06821,-0.16675 -0.238745,-0.26906 -0.166742,-0.10611 -0.424435,-0.10611 -0.306958,0 -0.655601,0.15916 -0.348643,0.15537 -0.674549,0.46233 v 1.74701 q 0,0.29558 0.04169,0.39411 0.04547,0.0985 0.144005,0.1478 0.06821,0.0379 0.363801,0.0379 h 0.109899 v 0.31833 h -1.951644 v -0.31833 h 0.09474 q 0.28043,0 0.38275,-0.0455 0.102319,-0.0493 0.144004,-0.17053 0.02274,-0.0606 0.02274,-0.41686 v -2.16007 z m 8.04911,-0.24632 q 0.170532,-0.20085 0.344853,-0.29559 0.178112,-0.0947 0.325906,-0.0947 0.136426,0 0.227376,0.0834 0.09474,0.0796 0.09474,0.19706 0,0.12126 -0.08337,0.20464 -0.08337,0.0834 -0.212218,0.0834 -0.05305,0 -0.144005,-0.019 -0.106108,-0.0265 -0.178111,-0.0265 -0.09474,0 -0.197059,0.0872 0.234955,0.28422 0.234955,0.66697 0,0.52297 -0.439593,0.90572 -0.439594,0.38275 -1.110353,0.38275 -0.371381,0 -0.746551,-0.15538 -0.250114,0.17811 -0.28422,0.2198 -0.05305,0.0644 -0.05305,0.13642 0,0.1099 0.113688,0.18191 0.144004,0.0947 0.568439,0.15916 l 1.095195,0.16295 q 0.363801,0.0569 0.731392,0.18948 0.367592,0.13264 0.530544,0.34486 0.166743,0.21221 0.166743,0.5078 0,0.50023 -0.462331,0.79961 -0.587388,0.38275 -1.743216,0.38275 -0.606336,0 -0.985296,-0.12885 -0.37896,-0.12885 -0.587388,-0.3638 -0.151584,-0.17053 -0.151584,-0.35243 0,-0.23496 0.151584,-0.45855 0.155374,-0.22358 0.712445,-0.63665 -0.360012,-0.091 -0.515386,-0.21222 -0.197059,-0.15537 -0.197059,-0.35243 0,-0.0985 0.03411,-0.1819 0.0379,-0.0872 0.117478,-0.17053 0.08337,-0.0872 0.299378,-0.23875 0.136426,-0.0947 0.19327,-0.14021 -0.276641,-0.19706 -0.416856,-0.43959 -0.140215,-0.24633 -0.140215,-0.53813 0,-0.48128 0.371381,-0.84129 0.450962,-0.43959 1.216461,-0.43959 0.341064,0 0.594967,0.0872 0.253903,0.0834 0.522965,0.30317 z m -1.152038,-0.0379 q -0.371381,0 -0.629074,0.26906 -0.257693,0.26906 -0.257693,0.66697 0,0.26527 0.117478,0.48128 0.117477,0.21222 0.329695,0.33727 0.212218,0.12127 0.447173,0.12127 0.234955,0 0.447173,-0.12505 0.216007,-0.12506 0.329695,-0.33728 0.117477,-0.21222 0.117477,-0.47749 0,-0.41685 -0.253903,-0.67455 -0.250113,-0.26148 -0.648021,-0.26148 z m -0.602547,3.28937 q -0.363801,0.31075 -0.485068,0.50402 -0.117478,0.19327 -0.117478,0.37138 0,0.15158 0.117478,0.2918 0.121267,0.144 0.409276,0.23495 0.28801,0.0909 0.723814,0.0909 0.515385,0 0.882976,-0.11368 0.371381,-0.1099 0.530544,-0.28422 0.117478,-0.13643 0.117478,-0.32212 0,-0.15916 -0.09853,-0.26906 -0.09474,-0.1099 -0.363801,-0.19327 -0.265272,-0.0796 -0.496438,-0.11748 z m 6.260417,-0.87161 0.242535,0.19706 q -0.276641,0.3297 -0.538124,0.52297 -0.257692,0.19327 -0.488858,0.26906 -0.231165,0.0796 -0.541913,0.0796 -0.557071,0 -0.947399,-0.22737 -0.447173,-0.26149 -0.685918,-0.68213 -0.238745,-0.42065 -0.238745,-0.99288 0,-0.59875 0.231166,-1.02319 0.231165,-0.42443 0.644232,-0.66697 0.416856,-0.24632 0.962558,-0.24632 0.405487,0 0.704866,0.12884 0.299378,0.12506 0.507806,0.38275 0.208428,0.25391 0.303168,0.5836 0.05305,0.19327 0.06063,0.50023 h -2.679246 q -0.01137,0.18569 -0.01137,0.27664 0,0.47749 0.166742,0.85266 0.166742,0.37138 0.439594,0.54949 0.27664,0.17432 0.625284,0.17432 0.295588,0 0.572229,-0.13642 0.276641,-0.14022 0.670759,-0.54192 z m -0.485069,-1.53099 q -0.05684,-0.34865 -0.162952,-0.51539 -0.102319,-0.16674 -0.295589,-0.26527 -0.18948,-0.0985 -0.428225,-0.0985 -0.238745,0 -0.447173,0.0985 -0.208428,0.0985 -0.348643,0.27285 -0.136425,0.17432 -0.238744,0.50781 z m 1.269516,-0.60634 v -0.31075 q 0.276641,-0.0227 0.492648,-0.091 0.216007,-0.072 0.492648,-0.23116 h 0.28422 v 0.71623 q 0.269061,-0.32969 0.625284,-0.52296 0.356222,-0.19327 0.640442,-0.19327 0.28043,0 0.443383,0.13263 0.162953,0.13264 0.162953,0.32212 0,0.13642 -0.109899,0.24253 -0.106108,0.10232 -0.257692,0.10232 -0.06821,0 -0.117478,-0.019 -0.04927,-0.0189 -0.144005,-0.0834 -0.208428,-0.13642 -0.348643,-0.13642 -0.18948,0 -0.416856,0.15916 -0.288009,0.20464 -0.450962,0.4017 v 1.747 q 0,0.22738 0.02274,0.31075 0.02653,0.0796 0.08337,0.14022 0.05684,0.0568 0.140215,0.0834 0.08337,0.0265 0.291799,0.0265 h 0.125057 v 0.31833 H 87.32208 v -0.31833 h 0.162953 q 0.231165,0 0.303168,-0.0417 0.09853,-0.0568 0.144004,-0.15537 0.04927,-0.10232 0.04927,-0.36381 v -2.23586 z"
       id="text1"
       style="font-size:7.7611px;line-height:0.9;font-family:'Bookman Old Style';-inkscape-font-specification:'Bookman Old Style';word-spacing:0px;stroke-width:1.752;stroke-linejoin:bevel;stroke-miterlimit:0;stroke-dashoffset:7.49486;fill:#ffffff"
       aria-label="feel no hunger" />
    <rect
       style="fill:#000000;fill-opacity:0;stroke:none;stroke-width:2.11123;stroke-linejoin:bevel;stroke-miterlimit:0;stroke-dashoffset:7.49486;stroke-opacity:1"
       id="rect1"
       width="57.541149"
       height="9.3066044"
       x="34.580395"
       y="106.18721"
       ry="0" />
  </g>
</svg>
