<?xml version="1.0" encoding="UTF-8" standalone="no"?>
<!-- Created with Inkscape (http://www.inkscape.org/) -->

<svg
   width="77.215111mm"
   height="89.160332mm"
   viewBox="0 0 77.215111 89.160332"
   version="1.1"
   id="svg1"
   inkscape:version="1.4 (86a8ad7, 2024-10-11)"
   sodipodi:docname="volume.svg"
   xmlns:inkscape="http://www.inkscape.org/namespaces/inkscape"
   xmlns:sodipodi="http://sodipodi.sourceforge.net/DTD/sodipodi-0.dtd"
   xmlns="http://www.w3.org/2000/svg"
   xmlns:svg="http://www.w3.org/2000/svg">
  <sodipodi:namedview
     id="namedview1"
     pagecolor="#ffffff"
     bordercolor="#000000"
     borderopacity="0.25"
     inkscape:showpageshadow="2"
     inkscape:pageopacity="0.0"
     inkscape:pagecheckerboard="0"
     inkscape:deskcolor="#d1d1d1"
     inkscape:document-units="mm"
     inkscape:zoom="0.50268269"
     inkscape:cx="-133.28488"
     inkscape:cy="308.34561"
     inkscape:window-width="1920"
     inkscape:window-height="991"
     inkscape:window-x="-9"
     inkscape:window-y="-9"
     inkscape:window-maximized="1"
     inkscape:current-layer="layer1" />
  <defs
     id="defs1" />
  <g
     inkscape:label="Layer 1"
     inkscape:groupmode="layer"
     id="layer1"
     transform="translate(-66.392444,-103.91983)">
    <path
       id="rect3"
       style="fill:#ff6400;stroke-width:2.2101;stroke-linejoin:bevel;stroke-miterlimit:0;stroke-dashoffset:7.49486"
       d="M 113.93233,103.91983 82.396167,134.17121 H 66.392444 v 28.65769 h 16.003723 l 31.536163,30.25138 z" />
    <path
       style="fill:#ff6400;stroke-width:3.052;stroke-linejoin:bevel;stroke-miterlimit:0;stroke-dashoffset:7.49486"
       d="m 113.93233,103.91983 v 89.16033"
       id="path3" />
    <g
       id="g6"
       transform="matrix(0.75932155,0,0,0.75932155,-29.743393,35.740749)">
      <path
         style="fill:#ff6400;stroke-linejoin:bevel;stroke-miterlimit:0;stroke-dashoffset:7.49486"
         d="m 191.80909,134.18454 c 7.91955,7.91955 7.91955,20.71275 0,28.6323 l 2.15723,2.15723 c 9.08587,-9.08587 9.08724,-23.86227 0.001,-32.94814 z"
         id="path5" />
      <path
         style="fill:#ff6400;stroke-width:1.75048;stroke-linejoin:bevel;stroke-miterlimit:0;stroke-dashoffset:7.49486"
         d="m 212.5914,123.44113 c 13.86296,13.86298 13.86296,36.25717 0,50.12014 l 3.77616,3.77618 c 15.90459,-15.90459 15.90699,-41.77032 0.002,-57.67491 z"
         id="path5-1" />
      <path
         style="fill:#ff6400;stroke-width:1.31629;stroke-linejoin:bevel;stroke-miterlimit:0;stroke-dashoffset:7.49486"
         d="m 200.78136,129.65675 c 10.4244,10.4244 10.4244,27.26391 0,37.68831 l 2.83953,2.83953 c 11.95961,-11.95961 11.96141,-31.40958 0.001,-43.36919 z"
         id="path5-7" />
    </g>
  </g>
</svg>
