<?xml version="1.0" encoding="UTF-8" standalone="no"?>
<svg
   class="external-icon"
   viewBox="0 0 28.57  20"
   focusable="false"
   style="pointer-events: none; display: block; width: 100%; height: 100%;"
   version="1.1"
   id="svg3"
   sodipodi:docname="youtube.svg"
   inkscape:version="1.4 (86a8ad7, 2024-10-11)"
   xmlns:inkscape="http://www.inkscape.org/namespaces/inkscape"
   xmlns:sodipodi="http://sodipodi.sourceforge.net/DTD/sodipodi-0.dtd"
   xmlns="http://www.w3.org/2000/svg"
   xmlns:svg="http://www.w3.org/2000/svg">
  <defs
     id="defs3" />
  <sodipodi:namedview
     id="namedview3"
     pagecolor="#ffffff"
     bordercolor="#000000"
     borderopacity="0.25"
     inkscape:showpageshadow="2"
     inkscape:pageopacity="0.0"
     inkscape:pagecheckerboard="0"
     inkscape:deskcolor="#d1d1d1"
     inkscape:zoom="14.10678"
     inkscape:cx="5.3165923"
     inkscape:cy="19.281508"
     inkscape:window-width="1920"
     inkscape:window-height="991"
     inkscape:window-x="-9"
     inkscape:window-y="-9"
     inkscape:window-maximized="1"
     inkscape:current-layer="svg3" />
  <svg
     viewBox="0 0 28.57 20"
     preserveAspectRatio="xMidYMid"
     version="1.1"
     id="svg2"
     width="100%"
     height="100%"
     transform="translate(-5.0152588e-5)"
     style="fill:#ff6400;fill-opacity:1">
    <g
       id="g2"
       style="fill:#ff6400;fill-opacity:1">
      <path
         d="M 27.9727,3.12324 C 27.6435,1.89323 26.6768,0.926623 25.4468,0.597366 23.2197,2.24288e-7 14.285,0 14.285,0 14.285,0 5.35042,2.24288e-7 3.12323,0.597366 1.89323,0.926623 0.926623,1.89323 0.597366,3.12324 2.24288e-7,5.35042 0,10 0,10 c 0,0 2.24288e-7,4.6496 0.597366,6.8768 0.329257,1.23 1.295864,2.1966 2.525864,2.5258 C 5.35042,20 14.285,20 14.285,20 c 0,0 8.9347,0 11.1618,-0.5974 1.23,-0.3292 2.1967,-1.2958 2.5259,-2.5258 C 28.5701,14.6496 28.5701,10 28.5701,10 c 0,0 -0.0024,-4.64958 -0.5974,-6.87676 z"
         fill="#ff0000"
         id="path1"
         style="fill:#ff6400;fill-opacity:1" />
    </g>
  </svg>
  <path
     d="m 10.5738,14.285035 7.4224,-4.285 -7.4224,-4.2850702 z"
     fill="#ffffff"
     id="path2"
     style="display:block" />
</svg>
